<?xml version="1.0" encoding="utf-8"?>
<!-- Generator: Adobe Illustrator 24.0.1, SVG Export Plug-In . SVG Version: 6.00 Build 0)  -->
<svg version="1.1" id="图层_1" xmlns="http://www.w3.org/2000/svg" xmlns:xlink="http://www.w3.org/1999/xlink" x="0px" y="0px"
	 width="50px" height="50px" viewBox="0 0 50 50" style="enable-background:new 0 0 50 50;" xml:space="preserve">
<style type="text/css">
	.st0{fill:#FFFFFF;}
	.st1{fill:url(#SVGID_1_);}
	.st2{fill:url(#SVGID_2_);}
	.st3{fill:url(#SVGID_3_);}
	.st4{fill:url(#SVGID_4_);}
</style>
<g>
	<path class="st0" d="M41,50H9c-5,0-9-4-9-9V9c0-5,4-9,9-9h32c5,0,9,4,9,9v32C50,46,46,50,41,50z"/>
</g>
<g>
	<g>
		<linearGradient id="SVGID_1_" gradientUnits="userSpaceOnUse" x1="25.1841" y1="-8.3605" x2="23.1566" y2="46.8887">
			<stop  offset="0" style="stop-color:#007BFF"/>
			<stop  offset="1" style="stop-color:#00A6EC"/>
		</linearGradient>
		<path class="st1" d="M20.3,25.9c3.7-0.7,10-1.5,16,0c-0.6-0.8-1.3-1.6-2-2.4c-2.1-2.5-4.3-4.8-6.7-7c-2.3-2.3-4.8-4.3-7.4-6.3
			c-1.3-1-2.6-1.9-4-2.8c-1.3-0.9-2.7-1.8-4.1-2.6c1,1.5,1.9,3.1,2.7,4.7c1.2,2.3,2.2,4.8,3.1,7.3c0.9,2.5,1.5,5.1,2,7.7
			C20.2,25,20.2,25.4,20.3,25.9z"/>
		<linearGradient id="SVGID_2_" gradientUnits="userSpaceOnUse" x1="34.1239" y1="-8.0324" x2="32.0964" y2="47.2168">
			<stop  offset="0" style="stop-color:#007BFF"/>
			<stop  offset="1" style="stop-color:#00A6EC"/>
		</linearGradient>
		<path class="st2" d="M19.8,1.7c1.6,0.8,3.1,1.8,4.6,2.7c3,1.9,5.8,4.1,8.5,6.5c2.6,2.4,5.2,4.9,7.4,7.6c2.3,2.7,4.4,5.6,6.3,8.6
			c1,1.5,1.8,3,2.7,4.6c0.3,0.5,0.5,1,0.8,1.5V8.5C50,3.8,46.2,0,41.5,0H16.4C17.6,0.5,18.7,1.1,19.8,1.7z"/>
		<linearGradient id="SVGID_3_" gradientUnits="userSpaceOnUse" x1="7.224" y1="-9.0195" x2="5.1965" y2="46.2297">
			<stop  offset="0" style="stop-color:#007BFF"/>
			<stop  offset="1" style="stop-color:#00A6EC"/>
		</linearGradient>
		<path class="st3" d="M10.3,49.7c0.3-1.1,0.5-2.2,0.7-3.4c0.2-1.1,0.4-2.3,0.6-3.4c0.2-1.1,0.3-2.3,0.4-3.4
			c0.2-2.3,0.3-4.6,0.3-6.9c0-2.3-0.2-4.6-0.5-6.9c-0.1-1.1-0.3-2.3-0.5-3.4c-0.2-1.1-0.4-2.3-0.7-3.4c-0.5-2.3-1.2-4.5-2-6.7
			c-1.3-3.7-3-7.2-4.9-10.8C1.4,3.1,0,5.6,0,8.5v33.1C0,46.2,3.8,50,8.5,50h1.7C10.2,49.9,10.2,49.8,10.3,49.7z"/>
		<linearGradient id="SVGID_4_" gradientUnits="userSpaceOnUse" x1="35.6068" y1="-7.978" x2="33.5793" y2="47.2712">
			<stop  offset="0" style="stop-color:#007BFF"/>
			<stop  offset="1" style="stop-color:#00A6EC"/>
		</linearGradient>
		<path class="st4" d="M47.1,42.8c-2.1-3.4-9.6-13.3-26.4-14.3c0.1,1.3,0.2,2.6,0.3,4c0.1,2.7,0,5.3-0.4,8c-0.3,2.6-0.8,5.3-1.6,7.8
			c-0.2,0.6-0.4,1.2-0.5,1.7h23.1c3,0,5.7-1.6,7.2-4C48.2,44.9,47.6,43.8,47.1,42.8z"/>
	</g>
</g>
</svg>
